<svg xmlns="http://www.w3.org/2000/svg" viewBox="0 0 351.3 303.49"><defs><style>.cls-1{fill:#161a1c;}.cls-2{fill:#2b465b;}.cls-3{fill:#afcee0;}</style></defs><title>Asset 3</title><g id="Layer_2" data-name="Layer 2"><g id="Layer_1-2" data-name="Layer 1"><rect class="cls-1" y="8.5" width="238" height="230" rx="33.07"/><rect class="cls-2" x="8.5" width="238" height="230" rx="33.07"/><path class="cls-3" d="M51.6,165,48,163.09a12.9,12.9,0,0,1-5.54-5.57,18.67,18.67,0,0,1-1.92-8.81v-6.18a18.25,18.25,0,0,1,1.92-8.71A12.93,12.93,0,0,1,48,128.31a18.69,18.69,0,0,1,8.76-1.89,20.92,20.92,0,0,1,5.51.7,16.52,16.52,0,0,1,4.65,2,12.67,12.67,0,0,1,3.43,3.26L65,137.14a11,11,0,0,0-3.72-2.78,10.67,10.67,0,0,0-4.45-1,8.86,8.86,0,0,0-6.61,2.38,9.22,9.22,0,0,0-2.35,6.72v6.18a9.52,9.52,0,0,0,2.33,6.86,8.76,8.76,0,0,0,6.63,2.42,10.22,10.22,0,0,0,4.48-1,11.05,11.05,0,0,0,3.69-3l5.31,5.13a13.07,13.07,0,0,1-3.47,3.2,16.34,16.34,0,0,1-4.64,2,21.54,21.54,0,0,1-5.48.68Z"/><path class="cls-3" d="M75.56,127H92.5v6.65H75.56Zm6,35.17c-1.41-1.67-2.12-4.15-2.12-7.42V116.09h7.37v38.73a3.5,3.5,0,0,0,.54,2.11,1.83,1.83,0,0,0,1.59.74H92.5v7H88.2c-3,0-5.27-.83-6.7-2.5Z"/><path class="cls-3" d="M102.58,127H110v37.5h-7.37Zm18.17,7.08a8.75,8.75,0,0,0-3.43-.61,6.7,6.7,0,0,0-7.37,7.29l-.76-7.22a13.78,13.78,0,0,1,4.48-5.22,10.6,10.6,0,0,1,6.07-1.86,13.79,13.79,0,0,1,4.64.74,10.36,10.36,0,0,1,3.63,2.18l-4.8,6.51A6.15,6.15,0,0,0,120.75,134.08Z"/><path class="cls-3" d="M141.5,154.82a3.31,3.31,0,0,0,.59,2.11,2,2,0,0,0,1.68.74h3.47v7h-4.33a8.23,8.23,0,0,1-6.49-2.6c-1.53-1.73-2.29-4.18-2.29-7.33V112h7.37Z"/><rect class="cls-1" x="165.5" y="131.66" width="177.8" height="171.83" rx="33.07"/><rect class="cls-2" x="173.5" y="123.66" width="177.8" height="171.83" rx="33.07"/><path class="cls-3" d="M258.12,231.73l-3.4-.72a27.3,27.3,0,0,1-6.34-2.17,26.44,26.44,0,0,1-5.51-3.61l4.63-5.63a21,21,0,0,0,6.61,3.9,23.24,23.24,0,0,0,7.84,1.3q5.71,0,8.86-2.12a6.78,6.78,0,0,0,3.14-6h0a6.35,6.35,0,0,0-1.43-4.35,8.44,8.44,0,0,0-3.68-2.39,41.81,41.81,0,0,0-5.84-1.43h-.23a.49.49,0,0,1-.24,0l-.54-.11a55.94,55.94,0,0,1-8.58-2,12.06,12.06,0,0,1-5.65-4.15c-1.57-2-2.36-4.86-2.35-8.58h0a15.25,15.25,0,0,1,2.18-8.33,13.77,13.77,0,0,1,6.38-5.25,25.19,25.19,0,0,1,10.08-1.81,25.86,25.86,0,0,1,5.55.61,27.75,27.75,0,0,1,5.38,1.83,31,31,0,0,1,5.22,3.05L276,189.62a24.72,24.72,0,0,0-6-3.3,16.87,16.87,0,0,0-6-1.1c-3.59,0-6.38.71-8.36,2.15a7,7,0,0,0-3,6.08h0a5.77,5.77,0,0,0,1.53,4.26A9.24,9.24,0,0,0,258,200a58.6,58.6,0,0,0,6.38,1.53l.27.06h.27l.4.07.39.08a43.8,43.8,0,0,1,8,2.31,12.49,12.49,0,0,1,5.35,4.32,13.72,13.72,0,0,1,2.15,8.14v.07A13.64,13.64,0,0,1,272.35,230a27.31,27.31,0,0,1-10.43,1.78Z"/></g></g></svg>