<svg xmlns="http://www.w3.org/2000/svg" viewBox="0 0 164.98 91.94"><defs><style>.cls-1{fill:#a51729;}.cls-2{fill:#d33d48;}</style></defs><title>Asset 6</title><g id="Layer_2" data-name="Layer 2"><g id="Layer_1-2" data-name="Layer 1"><path class="cls-1" d="M0,58.91,35.12,12.08a3.93,3.93,0,0,1,7,1.44h0a13.11,13.11,0,0,1-2.26,11L17,54.91a2.73,2.73,0,0,0,.87,4l36,19.66a11.82,11.82,0,0,1,5.82,7.59h0a4.66,4.66,0,0,1-6.77,5.18L.87,62.93"/><path class="cls-1" d="M114.42,2.77a3.3,3.3,0,0,0-4.46,4h0a11,11,0,0,0,6.23,7l29.36,12.6a2.28,2.28,0,0,1,1,3.29L128.67,59a9.94,9.94,0,0,0-1.06,8h0a3.91,3.91,0,0,0,7.1.93l25.94-42.47a2.28,2.28,0,0,0-1.05-3.29L114.42,2.77"/><path class="cls-1" d="M88.43,71.15a5.61,5.61,0,0,1-3.31,4.6l-6,2.65a2.51,2.51,0,0,1-3.62-2.47l5.29-60.06a3.8,3.8,0,0,1,3.78-3.45h7.18a2.1,2.1,0,0,1,2.09,2.33Z"/><path class="cls-2" d="M56.87,88.86l-52-28.43a2.73,2.73,0,0,1-.87-4L39.12,9.58a3.93,3.93,0,0,1,7,1.44h0a13.11,13.11,0,0,1-2.26,11L21,52.41a2.73,2.73,0,0,0,.87,4l36,19.66a11.82,11.82,0,0,1,5.82,7.59h0A4.66,4.66,0,0,1,56.87,88.86Z"/><path class="cls-2" d="M138.71,65.41l25.94-42.47a2.28,2.28,0,0,0-1.05-3.29L118.42.27a3.3,3.3,0,0,0-4.46,4h0a11,11,0,0,0,6.23,7l29.36,12.6a2.28,2.28,0,0,1,1,3.29L132.67,56.52a9.94,9.94,0,0,0-1.06,8h0A3.91,3.91,0,0,0,138.71,65.41Z"/><path class="cls-2" d="M92.43,68.65a5.61,5.61,0,0,1-3.31,4.6l-6,2.65a2.51,2.51,0,0,1-3.62-2.47l5.29-60.06a3.8,3.8,0,0,1,3.78-3.45h7.18a2.1,2.1,0,0,1,2.09,2.33Z"/></g></g></svg>