<svg xmlns="http://www.w3.org/2000/svg" viewBox="0 0 221.5 185"><defs><style>.cls-1{fill:#968f91;}.cls-2{fill:#42210b;}.cls-3{fill:#c40525;}.cls-4{fill:#a00526;}.cls-5{fill:#8c6239;}.cls-6{fill:#d6991e;}.cls-7{fill:#ffba40;}.cls-8{fill:#161616;}.cls-9{fill:none;stroke:#161616;stroke-linecap:round;stroke-miterlimit:10;}</style></defs><title>Asset 9</title><g id="Layer_2" data-name="Layer 2"><g id="Layer_1-2" data-name="Layer 1"><path class="cls-1" d="M216,172c0,7.18-43,13-96,13s-86-11.82-86-19,33-14,86-14S216,164.82,216,172Z"/><path class="cls-2" d="M158,13.5c0,5.25-34,9.5-76,9.5S6,18.75,6,13.5,40,4,82,4c37,0,67.74,3.29,74.58,7.67C157.51,12.26,158,12.87,158,13.5Z"/><path class="cls-3" d="M163.12,11.51C157.31,5,123.19,0,82,0,36.71,0,0,6,0,13.5A2.61,2.61,0,0,0,.51,15h0C5.07,21.76,39.81,27,82,27s77-5.25,81.5-12M82,23C40,23,6,18.75,6,13.5S40,4,82,4c37,0,67.74,3.29,74.58,7.67.93.59,1.42,1.2,1.42,1.83C158,18.75,124,23,82,23Z"/><path class="cls-3" d="M163.41,104.63c-.09,6.14-.26,12-.58,17.41a159.31,159.31,0,0,1-2.33,20.46c-4,21-1,39-75,42-32.11,1.3-59-6-68-15-13.92-13.92-18-24-17-89,.23-15,.05-57,0-65.49C5.07,21.76,39.81,27,82,27s77-5.25,81.5-12V78.5C163.5,87.81,163.52,96.52,163.41,104.63Z"/><path class="cls-4" d="M173.5,25.5a55.68,55.68,0,0,0-10,.9V44.22a35.33,35.33,0,0,1,9.57-1.3C190.33,42.92,204,55,204,72.24s-21.91,36.4-39.95,32.54c-.22,0-.43-.09-.64-.15-.09,6.14-.26,12-.58,17.41,27.29,3.13,58.67-25.3,58.67-51C221.5,44.21,200.29,25.5,173.5,25.5Z"/><path class="cls-4" d="M163.41,104.63c-.09,6.14-.26,12-.58,17.41a159.31,159.31,0,0,1-2.33,20.46c-4,21-1,39-75,42-32.11,1.3-59-6-68-15-13.92-13.92-18-24-17-89,.23-15,.05-57,0-65.49C5.07,21.76,39.81,27,82,27s77-5.25,81.5-12V78.5C163.5,87.81,163.52,96.52,163.41,104.63Z"/><path class="cls-3" d="M149,106.46c-.08,5.93-.23,11.53-.53,16.8A163,163,0,0,1,146.37,143c-3.66,20.26-.92,37.62-68.49,40.52C48.56,184.76,24,177.72,15.79,169,3.08,155.61-.68,145.89.27,83.19.49,68.4.23,22.85,0,14c4.16,6.51,34.85,11.5,73.37,11.5s72.42-1.5,77.63-7l-1.89,62.76C149.11,90.24,149.12,98.64,149,106.46Z"/><path class="cls-5" d="M42,13.5c0,3,47.12,5.5,30,5.5s-48-2.46-48-5.5S54.88,8,72,8,42,10.46,42,13.5Z"/><path class="cls-4" d="M69,111.58C69,126.81,56.06,137,42,137S13.4,124.56,16.47,107.8C19.2,92.84,27.89,84,42,84S69,96.35,69,111.58Z"/><path class="cls-6" d="M65.49,111c0,14.37-11.43,24-25.51,24S11.4,123.27,14.47,107.45C17.2,93.34,25.89,85,40,85S65.49,96.65,65.49,111Z"/><path class="cls-7" d="M61,126c-4.54,5.57-12.23,8.82-18.46,9.16S39.85,130.85,29,122c-5.46-4.45-14.23-1-15-8s1.84-17.43,8-22.59C27.53,86.8,33.29,84.26,39,84S50.52,85.67,56,90.12a25.17,25.17,0,0,1,9.16,17.31C65.75,114,65.54,120.43,61,126Z"/><circle class="cls-8" cx="28" cy="102" r="2"/><circle class="cls-8" cx="52" cy="102" r="2"/><path class="cls-9" d="M23.48,111a17.86,17.86,0,0,0,25.2,1.66"/></g></g></svg>