<svg id="Layer_1" data-name="Layer 1" xmlns="http://www.w3.org/2000/svg" viewBox="0 0 536 510"><defs><style>.cls-1{fill:#a5c1ce;}.cls-2{fill:#c6e4f4;}.cls-3{fill:none;stroke:#999;stroke-linecap:round;stroke-miterlimit:10;stroke-width:2px;stroke-dasharray:7;}</style></defs><title>paperplane</title><polygon class="cls-1" points="421.97 194.26 254.57 204.24 249.94 184.03 249.6 182.26 365.25 190.19 421.97 194.26"/><polygon class="cls-1" points="423.87 194.4 259.19 237.2 256.26 213.59 423.12 194.34 423.87 194.4"/><path class="cls-2" d="M422.15,194.14l-171.44-11.9a.73.73,0,0,1-.52-1.17l20.74-26a.13.13,0,0,1,.14-.05L422.2,193.88A.13.13,0,0,1,422.15,194.14Z"/><polygon class="cls-2" points="423.12 194.34 256.99 225.07 209.53 233.84 238.99 196.06 251.71 195.94 421.97 194.26 423.12 194.34"/><path class="cls-3" d="M140,310s45-10,52-39-18-21-23-15-4.89,23.63,27.56,14.81,56.59-32,59.94-35.31"/></svg>