<svg id="Layer_1" data-name="Layer 1" xmlns="http://www.w3.org/2000/svg" viewBox="0 0 402 274"><defs><style>.cls-1{fill:#a5c1ce;}.cls-2{fill:#c6e4f4;}.cls-3{fill:none;stroke:#999;stroke-linecap:round;stroke-miterlimit:10;stroke-width:2px;stroke-dasharray:7;}</style></defs><title>paper</title><polygon class="cls-1" points="372.68 87.75 168.55 99.92 162.9 75.28 162.5 73.12 303.52 82.79 372.68 87.75"/><polygon class="cls-1" points="375 87.92 174.19 140.11 170.62 111.32 374.08 87.85 375 87.92"/><path class="cls-2" d="M373.23,87.63,163.54,73.07A.72.72,0,0,1,163,71.9L188.52,40a.11.11,0,0,1,.14,0L373.28,87.36A.14.14,0,0,1,373.23,87.63Z"/><polygon class="cls-2" points="374.08 87.85 171.51 125.32 113.64 136.02 149.55 89.95 165.06 89.8 372.68 87.75 374.08 87.85"/><path class="cls-3" d="M28.85,228.88s54.87-12.19,63.41-47.55-22-25.61-28.05-18.3-6,28.82,33.6,18.07,69-39,73.1-43.06"/></svg>