<svg xmlns="http://www.w3.org/2000/svg" viewBox="0 0 126.85 177.56"><defs><style>.cls-1{fill:#d56e1d;}.cls-2{fill:#af561b;}.cls-3{fill:#ce7a00;}.cls-4{fill:#ffac19;}.cls-5{fill:#a81602;}.cls-6{fill:#d82200;}</style></defs><title>Asset 5</title><g id="Layer_2" data-name="Layer 2"><g id="Layer_1-2" data-name="Layer 1"><path class="cls-1" d="M.61,40s8-36,74-37c0,0,25-13,25,15,0,0-1.9,7.12,9,19s22,43,15,76c-4.67,22-2.47,28.65-1.5,30.5,1.08,2.08.29,4.12.23,6.45-.12,4.69-2.2,10.25-11.73,9l-.5-1.5s2,12-8,18c-7,4.18-9.07-4.89-7.93-10.88a43.19,43.19,0,0,0,.18-14.7c-1.63-10.52-4.74-26.58-8.75-27.92,0,0-11,11-13-5-.3-2.35,3-9,3-9l-28-26s-12-4-19-22C28.61,60-4.39,61,.61,40Z"/><path class="cls-2" d="M39,54.59C35.81,61,18.26,61.53,8.11,56.51S-.95,42.87,2.23,36.44s14-7.6,24.13-2.58S42.17,48.15,39,54.59Z"/><path class="cls-2" d="M28.83,60.62C30,63.64,35.91,77.19,48.55,83a1.21,1.21,0,0,1,.3.2L74.3,106.76A1.23,1.23,0,0,0,76,106.7c2.44-2.6,7.39-11.45-16.52-27.52a1.26,1.26,0,0,1-.33-.32L37.11,49.51c-.52-.77,2.23,1.74,1.81,2.57L37.41,55a1.22,1.22,0,0,1-2.3-.55h0a1.22,1.22,0,0,0-2.23-.69L29,59.49A1.23,1.23,0,0,0,28.83,60.62Z"/><path class="cls-3" d="M36.28,53.51c-1.13-5.3,3.39-12.1,8.26-14.78,9.85-5.42,33.3-18.22,54.71-13.22,0,0,26.83,23,27.39,61.24.09,6.29.75,12.55-.85,18.64-2.26,8.62-6.05,23.18-3.83,37.12,4.12,26-15.49,19-12.39,13,0,0,3.1,22-12.18,22.05-3.74,0-5.81-4.56-4.9-8.08,1.91-7.34-.09-20.5-1.5-26-2.06-8-6.19-22-6.19-22s-5.16,10-12.39,4c-2.73-2.27-3.1-11,1.31-15.67,3.41-3.61,5.68-12.57-7.5-22.33C52.68,77.5,38.88,65.67,36.28,53.51Z"/><path class="cls-4" d="M39.11,52.51c-1.1-5.3,3.28-12.1,8-14.78,9.55-5.42,32.27-18.22,53-13.22,0,0,26,23,26.53,61.24.09,6.29.73,12.55-.82,18.64-2.19,8.62-5.86,23.18-3.71,37.12,4,26-15,19-12,13,0,0,3,22-11.8,22.05-3.63,0-5.63-4.56-4.75-8.08,1.85-7.34-.09-20.5-1.45-26-2-8-6-22-6-22s-5,10-12,4c-2.65-2.27-3-11,1.26-15.67,3.31-3.61,5.51-12.57-7.26-22.33C55,76.5,41.63,64.67,39.11,52.51Z"/><path class="cls-5" d="M87.88,59.76c3.09,4.91,4,12.4.23,14.75s-10.69-1.33-13.78-6.24-2.55-10.8,1.19-13.15S84.8,54.85,87.88,59.76Z"/><path class="cls-5" d="M122.61,104c.25,5.8-6.09,22.4-10.5,22.5s-7-14-4.46-22.47c1.66-5.56,3.33-10.58,7.75-10.69S122.07,91.86,122.61,104Z"/><path class="cls-5" d="M103.11,32.51c9,8,13.74,27.65,10,30S85.42,47.18,82.33,42.27s-2.55-10.8,1.19-13.15S98.77,28.66,103.11,32.51Z"/><path class="cls-5" d="M74.11,47c0,1.38-2.46,2.5-5.5,2.5s-5.84-1.16-5.5-2.5c.5-2,3.46-1,6.5-1S74.11,45.63,74.11,47Z"/><path class="cls-5" d="M76.61,42c0,1.11-2.85-.5-4.5-.5s-3-.89-3-2,1.34-2,3-2S76.61,40.91,76.61,42Z"/><path class="cls-5" d="M108.11,88c0,3.59-1.35,6.5-3,6.5s-1-3.41-1-7,1.34-5,3-5S108.11,84.42,108.11,88Z"/><ellipse class="cls-5" cx="107.61" cy="70.51" rx="3.5" ry="2"/><circle class="cls-5" cx="114.61" cy="76.01" r="2.5"/><path class="cls-5" d="M100.11,124.51c0,3.32,2,6-1.5,6-1.38,0-2.5-2.68-2.5-6s1.12-6,2.5-6S100.11,121.2,100.11,124.51Z"/><path class="cls-5" d="M112.11,147c0,3-1.35,5.5-3,5.5s-1-2-1-5-.66-6,1-6S112.11,144,112.11,147Z"/><ellipse class="cls-5" cx="103.61" cy="136.01" rx="1.5" ry="2.5"/><path class="cls-6" d="M90.38,59.26c3.09,4.91,4,12.4.23,14.75s-10.69-1.33-13.78-6.24S74.28,57,78,54.62,87.3,54.35,90.38,59.26Z"/><path class="cls-6" d="M125.11,103.51c.25,5.8-6.09,22.4-10.5,22.5s-7-14-4.46-22.47C111.81,98,113.48,93,117.9,92.85S124.57,91.36,125.11,103.51Z"/><path class="cls-6" d="M105.61,32c9,8,13.74,27.65,10,30S87.92,46.68,84.83,41.77,82.28,31,86,28.62,101.27,28.16,105.61,32Z"/><path class="cls-6" d="M76.61,46.51c0,1.38-2.46,2.5-5.5,2.5s-5.84-1.16-5.5-2.5c.5-2,3.46-1,6.5-1S76.61,45.13,76.61,46.51Z"/><path class="cls-6" d="M79.11,41.51c0,1.11-2.85-.5-4.5-.5s-3-.89-3-2,1.34-2,3-2S79.11,40.41,79.11,41.51Z"/><path class="cls-6" d="M110.61,87.51c0,3.59-1.35,6.5-3,6.5s-1-3.41-1-7,1.34-5,3-5S110.61,83.92,110.61,87.51Z"/><ellipse class="cls-6" cx="110.11" cy="70.01" rx="3.5" ry="2"/><circle class="cls-6" cx="117.11" cy="75.51" r="2.5"/><path class="cls-6" d="M102.61,124c0,3.32,2,6-1.5,6-1.38,0-2.5-2.68-2.5-6s1.12-6,2.5-6S102.61,120.7,102.61,124Z"/><path class="cls-6" d="M114.61,146.51c0,3-1.35,5.5-3,5.5s-1-2-1-5-.66-6,1-6S114.61,143.48,114.61,146.51Z"/><ellipse class="cls-6" cx="106.11" cy="135.51" rx="1.5" ry="2.5"/></g></g></svg>