<svg xmlns="http://www.w3.org/2000/svg" viewBox="0 0 347.15 189.97"><defs><style>.cls-1{fill:#a5c1ce;}.cls-2{fill:#c6e4f4;}.cls-3{fill:none;stroke:#999;stroke-linecap:round;stroke-miterlimit:10;stroke-width:2px;stroke-dasharray:7;}</style></defs><title>Asset 2</title><g id="Layer_2" data-name="Layer 2"><g id="Layer_1-2" data-name="Layer 1"><polygon class="cls-1" points="344.83 47.84 140.7 60.01 135.06 35.37 134.65 33.2 275.67 42.88 344.83 47.84"/><polygon class="cls-1" points="347.15 48.01 146.34 100.19 142.77 71.41 346.23 47.94 347.15 48.01"/><path class="cls-2" d="M345.39,47.72,135.69,33.16a.73.73,0,0,1-.51-1.18L160.67.05a.15.15,0,0,1,.14,0L345.43,47.45A.14.14,0,0,1,345.39,47.72Z"/><polygon class="cls-2" points="346.23 47.94 143.66 85.4 85.79 96.1 121.7 50.03 137.22 49.88 344.83 47.84 346.23 47.94"/><path class="cls-3" d="M1,189s54.87-12.2,63.41-47.56-21.95-25.61-28-18.29S30.41,151.93,70,141.19s69-39,73.09-43.07"/></g></g></svg>