<svg xmlns="http://www.w3.org/2000/svg" viewBox="0 0 221.02 223.45"><defs><style>.cls-1{fill:#ea8932;}.cls-2{fill:#f7bd2d;}.cls-3{fill:#634429;}.cls-4{fill:#8c6239;}</style></defs><title>Asset 4</title><g id="Layer_2" data-name="Layer 2"><g id="Layer_1-2" data-name="Layer 1"><path class="cls-1" d="M108.7,34.3c1.62,11.43-2.34,21.44-8.85,22.37s-13.1-7.6-14.72-19S92.92,7.8,92.92,7.8,107.08,22.87,108.7,34.3Z"/><path class="cls-1" d="M135.4,38.42c-2.39,11.3-9.53,19.35-16,18S109.72,44.8,112.1,33.5,129.63,8.12,129.63,8.12,137.78,27.12,135.4,38.42Z"/><path class="cls-1" d="M159.08,51.43C153,61.22,143.5,66.35,137.92,62.87s-5.16-14.23,1-24S164,21,164,21,165.18,41.63,159.08,51.43Z"/><path class="cls-1" d="M176.88,71.74c-9.09,7.12-19.74,8.7-23.8,3.53s0-15.14,9.11-22.26,29.74-8.18,29.74-8.18S186,64.62,176.88,71.74Z"/><path class="cls-1" d="M186.66,96.93c-11,3.58-21.53,1.42-23.57-4.83s5.2-14.22,16.18-17.8S210,76.78,210,76.78,197.63,93.34,186.66,96.93Z"/><path class="cls-1" d="M187.23,123.93c-11.54-.38-20.71-6-20.49-12.59s9.75-11.59,21.29-11.2,28,12.85,28,12.85S198.77,124.32,187.23,123.93Z"/><path class="cls-1" d="M178.53,149.51c-10.71-4.31-17.4-12.75-14.94-18.85s13.12-7.54,23.83-3.24,22,21.67,22,21.67S189.25,153.82,178.53,149.51Z"/><path class="cls-1" d="M161.62,170.57c-8.59-7.71-12-17.93-7.61-22.82s14.92-2.61,23.51,5.11,13.22,27.86,13.22,27.86S170.21,178.28,161.62,170.57Z"/><path class="cls-1" d="M138.51,184.57c-5.43-10.18-5.13-20.95.67-24s14.9,2.65,20.34,12.84,2.89,30.7,2.89,30.7S144,194.76,138.51,184.57Z"/><path class="cls-1" d="M112,189.83c-1.63-11.43,2.33-21.45,8.84-22.37s13.1,7.59,14.73,19-7.79,29.85-7.79,29.85S113.64,201.26,112,189.83Z"/><path class="cls-1" d="M85.32,185.71c2.38-11.3,9.53-19.36,16-18s9.72,11.62,7.33,22.91S91.09,216,91.09,216,82.93,197,85.32,185.71Z"/><path class="cls-1" d="M61.64,172.7c6.11-9.8,15.58-14.92,21.16-11.45s5.15,14.24-1,24S56.7,203.15,56.7,203.15,55.54,182.5,61.64,172.7Z"/><path class="cls-1" d="M43.84,152.38c9.09-7.12,19.74-8.7,23.8-3.52s0,15.14-9.12,22.26-29.73,8.18-29.73,8.18S34.75,159.5,43.84,152.38Z"/><path class="cls-1" d="M82.2,39.55c5.44,10.19,5.14,21-.66,24.05S66.63,61,61.2,50.76s-2.89-30.71-2.89-30.71S76.77,29.37,82.2,39.55Z"/><path class="cls-1" d="M34.06,127.2c11-3.58,21.53-1.42,23.57,4.83s-5.21,14.22-16.18,17.8-30.74-2.48-30.74-2.48S23.09,130.78,34.06,127.2Z"/><path class="cls-1" d="M33.49,100.19c11.53.39,20.71,6,20.49,12.6S44.23,124.37,32.69,124s-28-12.85-28-12.85S22,99.81,33.49,100.19Z"/><path class="cls-1" d="M42.18,74.62c10.71,4.31,17.4,12.74,15,18.84S44,101,33.29,96.7,11.34,75,11.34,75,31.47,70.31,42.18,74.62Z"/><path class="cls-1" d="M59.1,53.56c8.59,7.71,12,17.93,7.6,22.82S51.79,79,43.2,71.27,30,43.41,30,43.41,50.51,45.84,59.1,53.56Z"/><path class="cls-2" d="M120.33,30.08c0,12.21-5.63,22.1-12.58,22.1s-12.59-9.89-12.59-22.1S107.75,0,107.75,0,120.33,17.87,120.33,30.08Z"/><path class="cls-2" d="M147.66,38.36c-4.17,11.47-12.85,18.84-19.38,16.47S119.84,41.22,124,29.75s22.11-24,22.11-24S151.84,26.89,147.66,38.36Z"/><path class="cls-2" d="M170.51,55.5c-7.84,9.34-18.52,13.3-23.84,8.84s-3.28-15.67,4.56-25,29-15,29-15S178.36,46.15,170.51,55.5Z"/><path class="cls-2" d="M186.13,79.41c-10.57,6.1-22,6.17-25.43.15s2.27-15.85,12.84-22,32.34-4.14,32.34-4.14S196.7,73.31,186.13,79.41Z"/><path class="cls-2" d="M192.62,107.22c-12,2.12-22.74-1.71-24-8.55s7.56-14.12,19.58-16.24,31.81,7.17,31.81,7.17S204.64,105.1,192.62,107.22Z"/><path class="cls-2" d="M189.21,135.58c-12-2.12-20.79-9.39-19.58-16.23s11.93-10.68,24-8.56S221,128.41,221,128.41,201.23,137.7,189.21,135.58Z"/><path class="cls-2" d="M176.3,161.05c-10.57-6.1-16.32-15.92-12.84-21.94s14.86-6,25.43.15,19.76,25.94,19.76,25.94S186.87,167.16,176.3,161.05Z"/><path class="cls-2" d="M155.47,180.58c-7.85-9.35-9.89-20.55-4.57-25s16-.51,23.85,8.84,9.69,31.13,9.69,31.13S163.31,189.93,155.47,180.58Z"/><path class="cls-2" d="M129.2,191.81c-4.17-11.47-2.26-22.7,4.27-25.07s15.21,5,19.38,16.46-1.53,32.57-1.53,32.57S133.38,203.28,129.2,191.81Z"/><path class="cls-2" d="M100.69,193.37c0-12.2,5.63-22.1,12.58-22.1s12.59,9.9,12.59,22.1-12.59,30.08-12.59,30.08S100.69,205.58,100.69,193.37Z"/><path class="cls-2" d="M73.35,185.09c4.18-11.47,12.86-18.84,19.39-16.46s8.44,13.6,4.27,25.07-22.12,24-22.12,24S69.18,196.56,73.35,185.09Z"/><path class="cls-2" d="M50.5,168c7.85-9.35,18.52-13.31,23.85-8.84s3.28,15.67-4.57,25-29,15-29,15S42.66,177.31,50.5,168Z"/><path class="cls-2" d="M34.89,144c10.57-6.1,22-6.17,25.43-.15s-2.28,15.85-12.85,22S15.13,170,15.13,170,24.32,150.15,34.89,144Z"/><path class="cls-2" d="M91.81,31.64c4.18,11.47,2.27,22.7-4.26,25.08s-15.21-5-19.39-16.47S69.7,7.68,69.7,7.68,87.64,20.18,91.81,31.64Z"/><path class="cls-2" d="M28.4,116.23c12-2.12,22.74,1.71,24,8.56S44.79,138.9,32.77,141,1,133.85,1,133.85,16.38,118.35,28.4,116.23Z"/><path class="cls-2" d="M31.81,87.88c12,2.11,20.78,9.38,19.58,16.23s-11.93,10.67-23.95,8.55S0,95.05,0,95.05,19.79,85.76,31.81,87.88Z"/><path class="cls-2" d="M44.71,62.4C55.28,68.5,61,78.33,57.56,84.35s-14.86,6-25.43-.16S12.37,58.26,12.37,58.26,34.14,56.29,44.71,62.4Z"/><path class="cls-2" d="M65.55,42.87c7.85,9.35,9.89,20.55,4.57,25s-16,.51-23.85-8.84-9.69-31.14-9.69-31.14S57.71,33.52,65.55,42.87Z"/><circle class="cls-3" cx="110.51" cy="111.73" r="64.83"/><circle class="cls-4" cx="110.51" cy="111.73" r="45.38"/></g></g></svg>