<svg id="Layer_1" data-name="Layer 1" xmlns="http://www.w3.org/2000/svg" viewBox="0 0 300 263"><defs><style>.cls-1{fill:#ea8932;}.cls-2{fill:#f7bd2d;}.cls-3{fill:#634429;}.cls-4{fill:#8c6239;}</style></defs><title>sunflower</title><path class="cls-1" d="M148.68,54.3c1.63,11.43-2.33,21.44-8.84,22.37s-13.1-7.6-14.73-19S132.9,27.8,132.9,27.8,147.06,42.87,148.68,54.3Z"/><path class="cls-1" d="M175.38,58.42c-2.38,11.3-9.53,19.35-16,18S149.7,64.8,152.09,53.5s17.52-25.38,17.52-25.38S177.77,47.12,175.38,58.42Z"/><path class="cls-1" d="M199.06,71.43C193,81.22,183.48,86.35,177.9,82.87s-5.15-14.23.95-24S204,41,204,41,205.16,61.63,199.06,71.43Z"/><path class="cls-1" d="M216.86,91.74c-9.09,7.12-19.74,8.7-23.8,3.53s0-15.14,9.12-22.26,29.73-8.18,29.73-8.18S226,84.62,216.86,91.74Z"/><path class="cls-1" d="M226.64,116.93c-11,3.58-21.53,1.42-23.57-4.83s5.21-14.22,16.18-17.8S250,96.78,250,96.78,237.61,113.34,226.64,116.93Z"/><path class="cls-1" d="M227.21,143.93c-11.53-.38-20.71-6-20.49-12.59s9.75-11.59,21.29-11.2,28,12.85,28,12.85S238.75,144.32,227.21,143.93Z"/><path class="cls-1" d="M218.52,169.51c-10.71-4.31-17.4-12.75-15-18.85s13.13-7.54,23.84-3.24,22,21.67,22,21.67S229.23,173.82,218.52,169.51Z"/><path class="cls-1" d="M201.6,190.57c-8.59-7.71-12-17.93-7.6-22.82s14.91-2.61,23.5,5.11,13.22,27.86,13.22,27.86S210.19,198.28,201.6,190.57Z"/><path class="cls-1" d="M178.5,204.57c-5.44-10.18-5.14-20.95.66-24s14.91,2.65,20.34,12.84,2.89,30.7,2.89,30.7S183.93,214.76,178.5,204.57Z"/><path class="cls-1" d="M152,209.83c-1.62-11.43,2.34-21.45,8.85-22.37s13.1,7.59,14.72,19-7.79,29.85-7.79,29.85S153.62,221.26,152,209.83Z"/><path class="cls-1" d="M125.3,205.71c2.39-11.3,9.53-19.36,16-18s9.71,11.62,7.33,22.91S131.07,236,131.07,236,122.92,217,125.3,205.71Z"/><path class="cls-1" d="M101.62,192.7c6.11-9.8,15.58-14.92,21.16-11.45s5.16,14.24-1,24-25.14,17.86-25.14,17.86S95.52,202.5,101.62,192.7Z"/><path class="cls-1" d="M83.82,172.38c9.09-7.12,19.74-8.7,23.8-3.52s0,15.14-9.11,22.26-29.74,8.18-29.74,8.18S74.74,179.5,83.82,172.38Z"/><path class="cls-1" d="M122.19,59.55c5.43,10.19,5.13,21-.67,24S106.62,81,101.18,70.76s-2.89-30.71-2.89-30.71S116.75,49.37,122.19,59.55Z"/><path class="cls-1" d="M74,147.2c11-3.58,21.53-1.42,23.57,4.83s-5.2,14.22-16.18,17.8-30.74-2.48-30.74-2.48S63.07,150.78,74,147.2Z"/><path class="cls-1" d="M73.47,120.19c11.54.39,20.71,6,20.49,12.6S84.21,144.37,72.67,144s-28-12.85-28-12.85S61.93,119.81,73.47,120.19Z"/><path class="cls-1" d="M82.17,94.62c10.71,4.31,17.4,12.74,14.94,18.84S84,121,73.28,116.7,51.33,95,51.33,95,71.45,90.31,82.17,94.62Z"/><path class="cls-1" d="M99.08,73.56c8.59,7.71,12,17.93,7.61,22.82S91.77,99,83.18,91.27,70,63.41,70,63.41,90.49,65.84,99.08,73.56Z"/><path class="cls-2" d="M160.31,50.08c0,12.21-5.63,22.1-12.58,22.1s-12.59-9.89-12.59-22.1S147.73,20,147.73,20,160.31,37.87,160.31,50.08Z"/><path class="cls-2" d="M187.65,58.36c-4.18,11.47-12.86,18.84-19.39,16.47S159.82,61.22,164,49.75s22.12-24,22.12-24S191.82,46.89,187.65,58.36Z"/><path class="cls-2" d="M210.5,75.5c-7.85,9.34-18.52,13.3-23.85,8.84s-3.28-15.67,4.57-25,29-15,29-15S218.34,66.15,210.5,75.5Z"/><path class="cls-2" d="M226.11,99.41c-10.57,6.1-22,6.17-25.43.15s2.28-15.85,12.85-22,32.34-4.14,32.34-4.14S236.68,93.31,226.11,99.41Z"/><path class="cls-2" d="M232.6,127.22c-12,2.12-22.74-1.71-23.95-8.55s7.56-14.12,19.58-16.24S260,109.6,260,109.6,244.62,125.1,232.6,127.22Z"/><path class="cls-2" d="M229.19,155.58c-12-2.12-20.78-9.39-19.58-16.23s11.93-10.68,23.95-8.56S261,148.41,261,148.41,241.21,157.7,229.19,155.58Z"/><path class="cls-2" d="M216.29,181.05c-10.57-6.1-16.32-15.92-12.85-21.94s14.86-6,25.43.15,19.76,25.94,19.76,25.94S226.86,187.16,216.29,181.05Z"/><path class="cls-2" d="M195.45,200.58c-7.85-9.35-9.89-20.55-4.57-25s16-.51,23.85,8.84,9.69,31.13,9.69,31.13S203.29,209.93,195.45,200.58Z"/><path class="cls-2" d="M169.19,211.81c-4.18-11.47-2.27-22.7,4.26-25.07s15.21,5,19.39,16.46-1.54,32.57-1.54,32.57S173.36,223.28,169.19,211.81Z"/><path class="cls-2" d="M140.67,213.37c0-12.2,5.63-22.1,12.58-22.1s12.59,9.9,12.59,22.1-12.59,30.08-12.59,30.08S140.67,225.58,140.67,213.37Z"/><path class="cls-2" d="M113.34,205.09c4.17-11.47,12.85-18.84,19.38-16.46s8.44,13.6,4.27,25.07-22.11,24-22.11,24S109.16,216.56,113.34,205.09Z"/><path class="cls-2" d="M90.49,188c7.84-9.35,18.52-13.31,23.84-8.84s3.28,15.67-4.56,25-29,15-29,15S82.64,197.31,90.49,188Z"/><path class="cls-2" d="M74.87,164c10.57-6.1,22-6.17,25.43-.15s-2.27,15.85-12.84,22S55.12,190,55.12,190,64.3,170.15,74.87,164Z"/><path class="cls-2" d="M131.8,51.64c4.17,11.47,2.26,22.7-4.27,25.08s-15.21-5-19.38-16.47,1.53-32.57,1.53-32.57S127.62,40.18,131.8,51.64Z"/><path class="cls-2" d="M68.38,136.23c12-2.12,22.74,1.71,24,8.56S84.77,158.9,72.75,161s-31.81-7.17-31.81-7.17S56.36,138.35,68.38,136.23Z"/><path class="cls-2" d="M71.79,107.88c12,2.11,20.79,9.38,19.58,16.23s-11.93,10.67-24,8.55S40,115.05,40,115.05,59.77,105.76,71.79,107.88Z"/><path class="cls-2" d="M84.7,82.4C95.27,88.5,101,98.33,97.54,104.35s-14.86,6-25.43-.16S52.35,78.26,52.35,78.26,74.13,76.29,84.7,82.4Z"/><path class="cls-2" d="M105.53,62.87c7.85,9.35,9.89,20.55,4.57,25s-16,.51-23.85-8.84-9.69-31.14-9.69-31.14S97.69,53.52,105.53,62.87Z"/><circle class="cls-3" cx="150.49" cy="131.73" r="64.83"/><circle class="cls-4" cx="150.49" cy="131.73" r="45.38"/></svg>