<svg id="Layer_1" data-name="Layer 1" xmlns="http://www.w3.org/2000/svg" viewBox="0 0 634 468"><defs><style>.cls-1{fill:#161a1c;}.cls-2{fill:#2b465b;}.cls-3{fill:#afcee0;}</style></defs><title>Untitled-1</title><rect class="cls-1" x="135.5" y="82.5" width="238" height="230" rx="33.07"/><rect class="cls-2" x="144" y="74" width="238" height="230" rx="33.07"/><path class="cls-3" d="M187.1,239l-3.63-1.91a12.9,12.9,0,0,1-5.54-5.57,18.7,18.7,0,0,1-1.92-8.81v-6.18a18.34,18.34,0,0,1,1.92-8.71,12.93,12.93,0,0,1,5.54-5.51,18.76,18.76,0,0,1,8.76-1.89,20.79,20.79,0,0,1,5.51.7,16.45,16.45,0,0,1,4.65,2,12.7,12.7,0,0,1,3.43,3.26l-5.31,4.76a11.08,11.08,0,0,0-3.72-2.78,10.59,10.59,0,0,0-4.45-1,8.86,8.86,0,0,0-6.61,2.38,9.19,9.19,0,0,0-2.35,6.72v6.18a9.5,9.5,0,0,0,2.33,6.86,8.77,8.77,0,0,0,6.63,2.42,10.12,10.12,0,0,0,4.48-1,11,11,0,0,0,3.69-3l5.31,5.13a13.12,13.12,0,0,1-3.47,3.2,16.34,16.34,0,0,1-4.64,2,21.59,21.59,0,0,1-5.48.68Z"/><path class="cls-3" d="M211.06,201H228v6.65H211.06Zm6,35.17c-1.41-1.67-2.12-4.15-2.12-7.42V190.09h7.37v38.73a3.54,3.54,0,0,0,.54,2.11,1.85,1.85,0,0,0,1.59.74H228v7H223.7Q219.15,238.68,217,236.17Z"/><path class="cls-3" d="M238.08,201h7.37v37.5h-7.37Zm18.17,7.08a8.86,8.86,0,0,0-3.43-.61,7.35,7.35,0,0,0-5.44,1.93,7.25,7.25,0,0,0-1.93,5.36l-.76-7.22a13.8,13.8,0,0,1,4.48-5.22,10.6,10.6,0,0,1,6.07-1.86,13.81,13.81,0,0,1,4.64.74,10.27,10.27,0,0,1,3.63,2.18l-4.8,6.51A6.13,6.13,0,0,0,256.25,208.08Z"/><path class="cls-3" d="M277,228.82a3.33,3.33,0,0,0,.59,2.11,2,2,0,0,0,1.68.74h3.47v7h-4.33a8.21,8.21,0,0,1-6.49-2.6c-1.53-1.73-2.29-4.18-2.29-7.33V186H277Z"/><rect class="cls-1" x="301" y="205.66" width="177.8" height="171.83" rx="33.07"/><rect class="cls-2" x="309" y="197.66" width="177.8" height="171.83" rx="33.07"/><path class="cls-3" d="M393.62,305.73l-3.4-.72a27,27,0,0,1-6.34-2.17,26.55,26.55,0,0,1-5.51-3.61L383,293.6a21,21,0,0,0,6.61,3.9,23.19,23.19,0,0,0,7.84,1.3q5.71,0,8.86-2.12a6.78,6.78,0,0,0,3.14-6v0a6.32,6.32,0,0,0-1.43-4.35,8.48,8.48,0,0,0-3.68-2.39,41.59,41.59,0,0,0-5.84-1.43.85.85,0,0,0-.23,0,.61.61,0,0,1-.24,0l-.54-.11a55.69,55.69,0,0,1-8.58-2,12.07,12.07,0,0,1-5.65-4.15q-2.36-3-2.35-8.58v0a15.31,15.31,0,0,1,2.18-8.33,13.74,13.74,0,0,1,6.38-5.25,25.26,25.26,0,0,1,10.08-1.81,25.79,25.79,0,0,1,5.55.61,27.56,27.56,0,0,1,5.38,1.83,31.07,31.07,0,0,1,5.22,3.05l-4.19,5.85a24.6,24.6,0,0,0-6-3.3,17,17,0,0,0-6-1.1c-3.59,0-6.38.71-8.36,2.15a7,7,0,0,0-3,6.08v0a5.79,5.79,0,0,0,1.53,4.26,9.3,9.3,0,0,0,3.83,2.3,58.52,58.52,0,0,0,6.38,1.53l.27.06.27,0,.4.07.39.08a43.68,43.68,0,0,1,8,2.31,12.46,12.46,0,0,1,5.35,4.32c1.43,2,2.15,4.7,2.15,8.14v.07a14.43,14.43,0,0,1-2.28,8.22,14.27,14.27,0,0,1-6.59,5.21,27.31,27.31,0,0,1-10.43,1.78Z"/></svg>